<svg width="24" height="20" viewBox="0 0 24 20" fill="none" xmlns="http://www.w3.org/2000/svg">
<path fill-rule="evenodd" clip-rule="evenodd" d="M0 9.54801C0 9.18632 0.156554 8.83944 0.435221 8.58369C0.713889 8.32793 1.09184 8.18425 1.48594 8.18425L18.702 8.18425L12.3214 2.33102C12.1832 2.20423 12.0736 2.0537 11.9989 1.88803C11.9241 1.72236 11.8856 1.5448 11.8856 1.36549C11.8856 1.18617 11.9241 1.00861 11.9989 0.842939C12.0736 0.677273 12.1832 0.526745 12.3214 0.399948C12.4596 0.273151 12.6236 0.172571 12.8041 0.103949C12.9846 0.0353279 13.1781 9.53674e-06 13.3734 9.53674e-06C13.5688 9.53674e-06 13.7623 0.0353279 13.9428 0.103949C14.1233 0.172571 14.2873 0.273151 14.4255 0.399948L23.3411 8.58247C23.4795 8.70915 23.5893 8.85964 23.6642 9.02533C23.7391 9.19101 23.7777 9.36863 23.7777 9.54801C23.7777 9.72739 23.7391 9.90501 23.6642 10.0707C23.5893 10.2364 23.4795 10.3869 23.3411 10.5135L14.4255 18.6961C14.2873 18.8229 14.1233 18.9234 13.9428 18.9921C13.7623 19.0607 13.5688 19.096 13.3734 19.096C13.1781 19.096 12.9846 19.0607 12.8041 18.9921C12.6236 18.9234 12.4596 18.8229 12.3214 18.6961C12.0424 18.44 11.8856 18.0927 11.8856 17.7305C11.8856 17.5512 11.9241 17.3737 11.9989 17.208C12.0736 17.0423 12.1832 16.8918 12.3214 16.765L18.702 10.9118L1.48594 10.9118C1.09184 10.9118 0.713889 10.7681 0.435221 10.5123C0.156554 10.2566 0 9.9097 0 9.54801Z" fill="#E9BD8C"/>
</svg>
