<svg width="79" height="13" viewBox="0 0 79 13" fill="none" xmlns="http://www.w3.org/2000/svg">
<path d="M2.26511 12.4801L3.87011 7.7101L0.000107463 5.1151H4.74011L6.43511 9.67979e-05L8.16011 5.1151H12.8701L9.00011 7.7101L10.6351 12.4801L6.43511 9.4351L2.26511 12.4801ZM18.6645 12.4801L20.2695 7.7101L16.3995 5.1151H21.1395L22.8345 9.67979e-05L24.5595 5.1151H29.2695L25.3995 7.7101L27.0345 12.4801L22.8345 9.4351L18.6645 12.4801ZM35.0639 12.4801L36.6689 7.7101L32.7989 5.1151H37.5389L39.2339 9.67979e-05L40.9589 5.1151H45.6689L41.7989 7.7101L43.4339 12.4801L39.2339 9.4351L35.0639 12.4801ZM51.4633 12.4801L53.0683 7.7101L49.1983 5.1151H53.9383L55.6333 9.67979e-05L57.3584 5.1151H62.0684L58.1983 7.7101L59.8334 12.4801L55.6333 9.4351L51.4633 12.4801ZM67.8628 12.4801L69.4678 7.7101L65.5978 5.1151H70.3378L72.0328 9.67979e-05L73.7578 5.1151H78.4678L74.5978 7.7101L76.2328 12.4801L72.0328 9.4351L67.8628 12.4801Z" fill="#D4A054"/>
</svg>
